<?xml version="1.0" standalone="no"?>
<!DOCTYPE svg PUBLIC "-//W3C//DTD SVG 20010904//EN"
 "http://www.w3.org/TR/2001/REC-SVG-20010904/DTD/svg10.dtd">
<svg version="1.0" xmlns="http://www.w3.org/2000/svg"
 width="777.000000pt" height="476.000000pt" viewBox="0 0 777.000000 476.000000"
 preserveAspectRatio="xMidYMid meet">

<g transform="translate(0.000000,476.000000) scale(0.100000,-0.100000)"
fill="#000000" stroke="none">
<path d="M3701 3945 c-188 -41 -316 -156 -328 -295 -4 -42 -10 -60 -20 -60
-27 0 -135 -62 -180 -103 -101 -93 -126 -214 -68 -332 28 -57 141 -185 163
-185 5 0 13 11 16 25 6 25 58 65 84 65 9 0 10 -5 2 -19 -5 -11 -10 -30 -10
-43 0 -23 2 -24 63 -20 111 7 196 -52 234 -163 29 -81 23 -255 -11 -370 -68
-227 -230 -454 -402 -562 -24 -16 -44 -32 -44 -36 0 -5 33 -23 74 -42 247
-113 536 -162 796 -136 117 12 234 35 259 50 47 30 -73 136 -209 187 l-35 13
41 0 c189 4 385 -126 480 -316 l41 -83 60 39 c121 78 186 197 196 356 l2 40
109 -104 109 -105 14 40 c44 126 40 347 -10 494 l-25 74 32 -34 c17 -20 55
-62 83 -95 l53 -60 0 112 c0 107 -16 227 -39 287 -7 16 -10 30 -8 32 1 2 31
-15 65 -36 35 -22 65 -40 67 -40 11 0 3 56 -24 164 -58 229 -187 446 -344 577
-32 27 -89 88 -126 136 -166 215 -436 414 -679 503 -157 57 -344 74 -481 45z
m420 -108 c53 -14 129 -39 170 -55 105 -43 212 -93 207 -97 -2 -2 -62 16 -133
41 -192 65 -305 86 -460 87 -92 0 -145 -4 -181 -15 -104 -32 -165 -77 -184
-133 -9 -27 -15 -31 -45 -31 -40 0 -42 6 -16 61 31 69 123 131 239 160 86 22
281 13 403 -18z m-133 -299 c-18 -27 -75 -58 -106 -58 -13 0 -37 7 -55 17
l-32 16 84 18 c46 10 86 21 89 24 3 3 12 5 20 5 13 0 13 -3 0 -22z m-391 -100
c10 -23 10 -23 -69 -23 l-80 0 49 22 c61 29 87 29 100 1z"/>
<path d="M2000 2337 c-93 -26 -150 -78 -187 -167 -14 -35 -18 -72 -18 -171 0
-124 0 -127 35 -195 30 -58 44 -74 88 -101 103 -61 287 -66 414 -11 l48 20 0
164 0 164 -130 0 -130 0 0 -60 0 -60 60 0 60 0 0 -59 c0 -33 -4 -63 -10 -66
-18 -11 -108 -18 -154 -11 -57 9 -109 52 -127 104 -7 20 -13 73 -13 118 0 65
5 90 25 130 33 67 73 89 166 89 65 0 76 -3 119 -33 l47 -34 43 43 44 43 -27
28 c-47 49 -108 71 -213 74 -58 3 -113 -1 -140 -9z"/>
<path d="M1280 2000 l0 -340 240 0 240 0 0 65 0 65 -165 0 -165 0 0 275 0 275
-75 0 -75 0 0 -340z"/>
<path d="M280 1153 l72 -138 -70 -124 -70 -124 76 -89 c87 -101 98 -115 92
-121 -3 -2 -89 -45 -192 -95 l-188 -91 36 -83 c20 -46 50 -118 67 -160 l32
-78 405 0 c364 0 433 2 675 26 149 15 270 27 271 28 0 0 36 44 79 96 43 52 80
97 81 98 1 2 87 -40 190 -94 l187 -97 181 -33 181 -32 204 42 205 41 25 57
c14 32 31 58 37 58 7 0 171 -43 366 -95 l353 -95 697 0 697 0 163 35 c90 19
173 37 186 40 16 4 30 21 44 55 13 31 27 50 37 50 9 -1 232 -52 496 -114 l480
-113 26 24 25 23 381 0 381 0 184 211 c100 117 182 217 181 223 -2 6 -30 76
-63 155 -33 79 -60 149 -60 155 0 6 73 45 161 86 89 41 162 77 164 80 2 3 -27
77 -64 165 l-68 160 -1804 3 -1804 3 -235 -27 -235 -26 -129 26 c-121 24 -146
26 -414 26 l-284 0 -126 -105 -127 -106 -9 106 -8 105 -384 0 -384 0 -104
-101 -105 -101 -16 39 c-9 21 -28 66 -42 101 l-25 62 -590 0 -590 0 72 -137z
m1106 -38 c24 -55 43 -105 44 -110 0 -6 -70 -45 -155 -88 -85 -42 -155 -74
-155 -69 0 4 9 36 20 72 11 36 20 66 20 68 0 1 -103 2 -229 2 -171 0 -231 -3
-238 -12 -6 -7 -22 -36 -38 -64 l-27 -52 23 -31 23 -31 221 0 221 0 63 -155
c62 -153 62 -155 44 -178 -10 -13 -83 -98 -162 -190 l-144 -167 -367 0 -367 0
-44 107 c-24 59 -45 110 -47 115 -3 7 308 162 314 156 1 -2 -8 -36 -21 -75
l-23 -73 212 0 212 0 72 84 c69 81 71 84 59 115 l-11 31 -221 0 -220 1 -82 99
c-46 55 -83 103 -83 107 0 4 29 60 65 123 l64 115 -54 103 -53 102 510 -2 511
-3 43 -100z m1004 -445 c0 -517 -1 -550 -17 -550 -10 0 -78 9 -150 21 l-133
22 0 103 0 104 -191 2 -190 3 125 113 125 112 66 0 65 0 0 152 c0 129 -2 150
-14 138 -7 -8 -149 -172 -316 -365 -166 -192 -310 -353 -319 -357 -21 -9 -366
-51 -379 -47 -5 2 172 213 393 468 l403 465 -39 78 c-21 42 -39 80 -39 83 0 3
137 5 305 5 l305 0 0 -550z m818 541 c-1 -5 -106 -238 -232 -518 l-228 -509
-165 -33 c-91 -18 -166 -31 -168 -29 -1 2 90 205 203 452 l205 449 -47 94
c-25 51 -46 95 -46 98 0 3 108 5 241 5 135 0 239 -4 237 -9z m701 -28 c-18
-21 -125 -141 -238 -266 -113 -126 -207 -234 -208 -240 -2 -7 53 -138 120
-292 68 -154 121 -281 118 -282 -3 -2 -71 14 -151 35 l-145 38 -100 215 -101
214 -109 5 -110 5 150 121 c113 91 183 159 284 273 74 83 135 151 135 152 1 0
354 54 380 58 4 0 -7 -16 -25 -36z m1255 15 c-11 -13 -56 -63 -99 -113 l-79
-90 -274 -5 -274 -5 -134 -305 c-74 -168 -137 -313 -140 -322 -5 -17 17 -18
342 -20 l347 -3 -99 -112 -99 -113 -452 0 c-308 0 -453 3 -453 10 0 6 90 210
200 454 l201 443 -20 44 c-10 24 -31 70 -45 102 l-26 57 562 0 561 0 -19 -22z
m1316 19 c0 -2 -33 -73 -72 -159 -70 -150 -78 -161 -180 -276 -60 -66 -108
-125 -108 -131 0 -7 52 -134 115 -283 63 -149 114 -272 113 -273 -2 -1 -81 17
-177 39 l-175 41 -77 185 -77 185 -156 5 -156 5 127 113 126 112 81 0 81 0 63
104 c34 57 62 107 62 110 0 3 -94 6 -208 6 l-208 0 -179 -400 c-98 -220 -183
-404 -189 -408 -14 -11 -318 -74 -324 -68 -2 3 88 207 201 453 l205 448 -49
91 c-27 50 -49 94 -49 98 0 3 272 6 605 6 333 0 605 -1 605 -3z m1144 -108
c26 -61 46 -113 44 -115 -6 -5 -318 -153 -318 -150 0 1 11 35 24 74 l25 72
-233 0 -232 0 -36 -65 -37 -65 25 -30 25 -30 221 -2 220 -3 63 -154 64 -153
-162 -189 -162 -188 -368 2 -369 2 -44 105 c-24 57 -44 108 -44 113 0 9 302
158 308 152 2 -2 -6 -33 -17 -70 -12 -37 -21 -69 -21 -71 0 -2 94 -4 209 -4
l209 0 72 80 c69 77 72 82 63 113 l-9 32 -222 5 -223 5 -84 100 -84 99 45 81
c25 44 54 98 66 121 l20 40 -51 102 -51 102 508 0 509 0 47 -111z m-2699 -336
c-3 -10 -25 -60 -48 -110 l-42 -93 -255 0 c-249 0 -254 0 -235 19 11 10 66 60
123 110 l103 91 180 0 c168 0 181 -1 174 -17z"/>
</g>
</svg>
