<?xml version="1.0" standalone="no"?>
<!DOCTYPE svg PUBLIC "-//W3C//DTD SVG 20010904//EN"
 "http://www.w3.org/TR/2001/REC-SVG-20010904/DTD/svg10.dtd">
<svg version="1.0" xmlns="http://www.w3.org/2000/svg"
 width="180.000000pt" height="132.000000pt" viewBox="0 0 180.000000 132.000000"
 preserveAspectRatio="xMidYMid meet">

<g transform="translate(0.000000,132.000000) scale(0.100000,-0.100000)"
fill="#000000" stroke="none">
<path d="M820 1175 c0 -69 3 -85 15 -85 10 0 15 10 15 28 l1 27 20 -27 c11
-16 30 -28 41 -28 19 0 19 2 -7 35 -21 29 -24 39 -15 50 7 8 21 15 31 15 15 0
19 -7 19 -38 0 -21 5 -43 12 -50 17 -17 58 -15 58 3 0 8 -7 15 -15 15 -25 0
-20 66 5 73 11 3 20 10 20 16 0 6 -9 11 -20 11 -13 0 -20 7 -20 20 0 12 -7 20
-16 20 -9 0 -18 -9 -21 -20 -4 -14 -14 -20 -34 -20 -17 0 -34 -8 -43 -22 -16
-22 -16 -21 -16 20 0 31 -4 42 -15 42 -12 0 -15 -16 -15 -85z"/>
<path d="M134 1090 c-32 -13 -54 -50 -54 -91 0 -51 39 -90 118 -119 77 -28 89
-43 32 -38 l-43 3 -64 -102 c-35 -57 -60 -103 -55 -103 4 0 40 9 80 20 39 11
74 20 77 20 3 0 5 -17 5 -38 0 -21 7 -48 16 -61 23 -32 106 -68 191 -83 71
-12 73 -13 84 -47 31 -95 111 -197 193 -245 274 -160 616 47 616 374 l0 55 52
29 c61 35 125 90 133 117 6 17 16 19 102 19 l96 0 -27 21 c-21 17 -26 29 -26
68 0 45 2 49 50 85 28 21 50 40 50 42 0 2 -44 4 -98 4 -98 0 -98 0 -109 -27
l-10 -28 -8 28 c-7 25 -11 27 -56 27 -27 0 -49 -5 -49 -10 0 -7 -7 -7 -21 1
-13 7 -40 9 -65 5 -26 -3 -44 -2 -44 4 0 17 -57 40 -98 40 -25 0 -49 -8 -66
-21 -26 -21 -36 -21 -322 -20 -280 1 -296 2 -316 21 -29 27 -98 31 -125 8 -9
-7 -21 -4 -40 10 -56 39 -146 53 -199 32z m149 -24 c18 -7 41 -23 51 -35 18
-20 20 -20 38 -4 28 25 91 23 121 -5 13 -12 35 -22 50 -22 14 0 31 -8 36 -17
10 -17 10 -17 11 0 0 14 9 17 55 17 45 0 55 -3 55 -17 0 -15 1 -15 18 0 11 10
36 17 60 17 40 0 42 -2 42 -29 0 -26 -4 -30 -32 -33 -28 -2 -33 -7 -33 -28 0
-21 5 -26 34 -28 30 -3 33 -1 28 17 -6 25 -8 25 34 7 30 -12 37 -12 54 0 18
14 18 16 -20 54 l-39 40 113 0 c62 0 121 -5 132 -10 16 -9 24 -6 45 19 13 16
38 32 54 36 32 7 81 -14 102 -44 10 -14 18 -17 28 -10 26 15 76 10 104 -12
l26 -20 0 20 c0 17 6 21 35 21 21 0 35 -5 35 -12 1 -7 7 -26 14 -43 l13 -30
13 43 13 42 66 0 65 0 -32 -33 c-27 -27 -32 -41 -32 -79 0 -26 5 -50 10 -53
28 -18 0 -25 -95 -25 -93 0 -105 2 -105 18 -1 16 -1 16 -10 0 -6 -9 -25 -22
-44 -28 -42 -13 -98 6 -116 40 -9 16 -15 19 -23 11 -14 -14 -72 -14 -99 0 -17
9 -19 8 -14 -9 15 -45 -13 -72 -141 -133 -68 -32 -127 -59 -133 -59 -6 0 4 25
21 55 17 30 29 60 27 67 -3 8 -11 0 -20 -16 l-16 -30 -7 32 c-6 29 -10 32 -41
32 -21 0 -33 4 -29 10 4 6 -6 10 -23 10 -16 0 -41 9 -56 21 l-26 20 0 -20 c0
-19 -6 -21 -55 -21 -41 0 -56 4 -64 18 -10 16 -10 16 -11 0 0 -13 -8 -18 -30
-18 -27 0 -30 3 -30 30 0 30 0 30 -25 14 -18 -12 -39 -15 -70 -12 -44 5 -45 5
-45 -24 0 -46 -48 -84 -145 -114 -119 -37 -123 -34 -72 53 41 71 43 72 87 75
66 4 58 26 -24 59 -88 36 -116 62 -116 108 0 55 31 81 97 81 30 0 68 -6 86
-14z m207 -248 c0 -7 -24 -25 -53 -41 -172 -89 -171 -167 3 -198 86 -15 342
-7 465 15 200 36 411 110 494 173 33 26 91 41 91 23 0 -19 -94 -91 -161 -123
-344 -166 -942 -208 -1054 -75 -14 16 -25 36 -25 44 0 27 29 72 51 79 12 4 38
22 59 41 20 18 57 43 81 54 53 23 49 23 49 8z m770 -30 c28 -46 26 -55 -24
-77 -70 -31 -101 -34 -137 -15 -30 15 -31 17 -13 27 31 16 66 50 75 75 7 17
16 22 44 22 29 0 39 -6 55 -32z m76 -7 l29 -8 -30 -15 -30 -16 -17 40 c-17 40
-17 40 1 24 10 -10 32 -21 47 -25z m-810 -31 c-9 -22 -19 -65 -22 -96 l-7 -56
-45 6 c-52 7 -114 35 -120 54 -6 20 55 70 131 107 39 19 73 32 75 30 3 -2 -3
-22 -12 -45z m227 26 c-1 -16 4 -18 47 -12 29 4 51 2 55 -4 4 -6 -7 -10 -28
-10 -19 0 -59 -9 -90 -19 -52 -18 -56 -18 -60 -3 -6 24 3 -74 10 -111 4 -20 3
-28 -4 -24 -6 4 -14 27 -17 52 -4 25 -11 45 -15 45 -16 0 -101 -73 -101 -86 0
-8 -7 -14 -15 -14 -25 0 -15 89 19 170 l14 35 94 -1 c83 0 93 -2 91 -18z m147
-146 c0 -5 -5 -10 -11 -10 -5 0 -7 5 -4 10 3 6 8 10 11 10 2 0 4 -4 4 -10z
m410 -53 c0 -105 -58 -237 -135 -304 -56 -50 -150 -92 -220 -99 -155 -16 -322
82 -391 229 -27 60 -30 87 -9 87 8 0 15 -6 15 -14 0 -19 48 -107 73 -134 15
-16 32 -22 61 -22 84 0 78 24 -20 73 -27 14 -56 32 -62 40 -7 8 21 -3 61 -24
41 -21 80 -46 87 -54 14 -16 46 -20 54 -6 3 4 -6 19 -20 32 -34 31 -88 109
-76 109 5 0 21 -17 36 -38 14 -21 40 -51 56 -67 28 -27 30 -27 55 -11 28 18
30 27 14 43 -15 15 -29 82 -18 89 5 3 9 -4 9 -16 0 -29 28 -80 44 -80 7 0 47
31 87 70 41 38 80 72 87 75 29 11 6 -18 -74 -94 -85 -81 -85 -81 -59 -91 42
-16 96 -11 158 14 67 28 75 25 15 -5 -56 -29 -145 -36 -184 -16 -28 14 -33 14
-58 -3 l-28 -18 23 -15 c42 -28 102 -50 159 -58 l55 -8 -64 4 c-45 2 -81 12
-127 35 -70 34 -101 36 -96 5 2 -11 6 -35 9 -53 6 -40 27 -46 127 -40 130 8
237 85 297 212 34 72 35 80 11 114 -35 50 -35 52 0 67 47 20 48 20 48 -28z"/>
<path d="M138 1050 c-58 -45 -24 -104 87 -147 60 -24 70 -32 73 -55 3 -29 -6
-34 -71 -40 -22 -2 -35 -14 -59 -57 l-31 -54 39 7 c68 13 154 57 170 87 34 66
4 116 -93 160 -47 21 -63 33 -63 49 0 15 6 20 29 20 16 0 34 -7 41 -15 17 -21
92 -21 84 0 -10 26 -72 56 -126 62 -44 4 -58 2 -80 -17z"/>
<path d="M376 1009 c-21 -16 -26 -29 -26 -63 0 -51 20 -82 59 -91 56 -12 100
27 101 88 0 74 -76 112 -134 66z m84 -29 c11 -11 20 -28 20 -37 0 -22 -29 -53
-51 -53 -23 0 -49 27 -49 51 0 20 33 59 50 59 6 0 19 -9 30 -20z"/>
<path d="M402 964 c-20 -36 15 -78 45 -53 21 18 12 63 -14 67 -12 2 -25 -4
-31 -14z"/>
<path d="M1158 1010 c-32 -25 -43 -60 -19 -60 9 0 22 9 29 20 13 22 61 27 79
9 6 -6 19 -9 29 -7 17 3 16 6 -8 31 -33 33 -75 35 -110 7z"/>
<path d="M210 996 c0 -8 17 -20 38 -26 20 -7 47 -19 60 -26 20 -13 22 -13 22
6 0 16 -7 20 -33 20 -21 0 -36 7 -45 20 -14 23 -42 27 -42 6z"/>
<path d="M520 910 c0 -63 3 -80 14 -80 10 0 16 13 18 38 l3 37 20 -37 c11 -23
26 -38 37 -38 16 0 18 9 18 80 0 86 -17 111 -22 33 l-3 -48 -25 48 c-15 30
-31 47 -42 47 -16 0 -18 -10 -18 -80z"/>
<path d="M650 910 c0 -73 2 -80 20 -80 18 0 20 7 20 80 0 73 -2 80 -20 80 -18
0 -20 -7 -20 -80z"/>
<path d="M725 965 c-33 -32 -34 -83 -1 -114 18 -17 33 -22 67 -19 53 4 58 22
9 26 -47 5 -62 19 -58 56 2 25 9 33 36 41 41 12 42 35 2 35 -19 0 -40 -9 -55
-25z"/>
<path d="M903 965 c15 -13 27 -29 27 -34 0 -6 7 -8 15 -5 13 5 14 2 6 -19 -8
-22 -7 -24 10 -20 12 4 19 14 19 31 0 24 1 25 53 19 29 -4 59 -2 67 3 13 9 12
13 -9 30 -20 17 -38 20 -120 20 l-96 -1 28 -24z"/>
<path d="M1330 980 c-11 -7 -6 -10 22 -10 20 0 45 -3 55 -6 16 -5 16 -4 -1 10
-22 18 -54 20 -76 6z"/>
<path d="M1460 972 c0 -17 47 -49 57 -39 2 2 -1 16 -6 31 -12 31 -51 37 -51 8z"/>
<path d="M1575 954 c-19 -47 -20 -45 18 -72 l32 -22 3 42 c2 27 11 52 24 66
l21 22 -41 0 c-38 0 -43 -3 -57 -36z"/>
<path d="M1185 970 c-3 -5 3 -10 14 -10 11 0 23 5 26 10 3 6 -3 10 -14 10 -11
0 -23 -4 -26 -10z"/>
<path d="M1244 912 c-21 -25 -23 -26 -63 -12 -48 16 -56 12 -36 -17 21 -30 67
-38 104 -18 19 9 31 11 31 5 0 -6 11 -22 25 -35 55 -56 145 -13 145 68 0 18
-6 26 -23 29 -20 4 -23 1 -19 -24 2 -15 -1 -35 -8 -43 -33 -40 -105 9 -80 54
10 19 8 21 -22 20 -23 0 -39 -8 -54 -27z"/>
<path d="M1345 926 c-20 -15 -17 -44 7 -59 12 -8 21 -7 32 2 36 30 -1 85 -39
57z"/>
<path d="M1000 920 c0 -5 7 -10 15 -10 8 0 15 5 15 10 0 6 -7 10 -15 10 -8 0
-15 -4 -15 -10z"/>
<path d="M1190 920 c-12 -8 -9 -10 12 -10 15 0 30 5 33 10 8 13 -25 13 -45 0z"/>
<path d="M1460 875 c0 -55 27 -65 32 -12 l3 32 18 -32 c19 -35 51 -44 61 -17
3 9 6 17 6 19 0 5 -99 55 -110 55 -5 0 -10 -20 -10 -45z"/>
<path d="M1035 862 l-30 -17 25 -3 c42 -6 45 -19 9 -41 -45 -28 -59 -26 -59 5
0 16 -5 24 -12 21 -7 -2 -12 -14 -10 -25 2 -16 -1 -20 -12 -16 -12 5 -16 0
-16 -20 0 -15 -7 -38 -16 -52 -9 -13 -15 -27 -12 -29 7 -8 191 80 211 99 22
23 22 59 -1 79 -23 21 -39 21 -77 -1z"/>
<path d="M1590 845 c0 -8 7 -15 16 -15 14 0 14 3 4 15 -7 8 -14 15 -16 15 -2
0 -4 -7 -4 -15z"/>
<path d="M1000 815 c0 -19 11 -19 36 0 18 14 18 14 -8 15 -18 0 -28 -5 -28
-15z"/>
<path d="M725 301 l-40 -6 40 -26 c77 -50 109 -46 85 12 -13 30 -16 31 -85 20z"/>
<path d="M1200 210 c0 -5 5 -12 11 -15 6 -5 4 -12 -8 -20 -22 -16 -38 -8 -22
11 7 9 8 14 1 14 -6 0 -13 -4 -16 -9 -8 -12 4 -41 16 -41 6 0 16 -7 22 -16 11
-14 14 -13 36 5 14 11 20 20 15 21 -6 0 -16 -5 -22 -11 -17 -17 -37 -1 -22 17
6 7 15 12 19 9 5 -3 6 4 3 14 -5 20 -33 38 -33 21z"/>
<path d="M603 203 c9 -2 17 -11 17 -20 0 -13 -4 -13 -27 3 -23 14 -26 15 -15
1 8 -9 12 -20 9 -24 -3 -4 6 -9 19 -9 13 -1 21 2 18 7 -3 5 -1 9 4 9 6 0 8 9
5 20 -3 13 -13 20 -27 19 -17 -1 -17 -2 -3 -6z"/>
<path d="M662 162 c-5 -9 -7 -22 -5 -29 2 -6 -1 -14 -6 -18 -18 -10 -13 -21
17 -34 l27 -12 -23 19 c-20 15 -21 20 -9 30 7 7 18 8 22 4 5 -4 5 -1 1 6 -4 6
-2 12 3 12 16 0 13 27 -4 34 -8 3 -19 -2 -23 -12z m28 -6 c0 -2 -7 -7 -16 -10
-8 -3 -12 -2 -9 4 6 10 25 14 25 6z"/>
<path d="M1105 156 c-17 -12 -16 -13 13 -12 18 0 31 5 29 10 -5 16 -22 17 -42
2z"/>
<path d="M709 138 c-6 -12 -16 -26 -22 -29 -5 -4 -5 -9 2 -13 10 -7 47 52 38
61 -3 2 -11 -6 -18 -19z"/>
<path d="M732 111 c-7 -19 -10 -37 -7 -39 3 -3 5 1 5 9 1 10 5 8 16 -6 14 -19
15 -19 12 5 -2 20 2 26 21 28 22 4 23 2 17 -35 -5 -27 -4 -34 3 -23 6 8 11 23
11 33 0 9 6 17 13 17 6 0 4 5 -6 11 -11 6 -29 9 -42 6 -17 -3 -25 1 -27 12 -2
10 -9 3 -16 -18z"/>
<path d="M1130 119 c-19 -11 -27 -18 -17 -15 10 3 20 0 23 -9 4 -8 10 -15 15
-15 4 0 6 7 3 15 -4 8 -1 22 6 30 16 19 13 18 -30 -6z"/>
<path d="M1010 113 c0 -1 10 -11 21 -22 l21 -20 -23 5 -24 5 23 -11 c13 -5 28
-8 33 -4 5 3 9 0 9 -7 0 -6 -8 -9 -20 -6 -11 3 -20 1 -20 -4 0 -10 43 -12 53
-2 4 3 2 13 -5 20 -8 10 -9 17 -1 21 17 11 -7 27 -39 27 -16 1 -28 0 -28 -2z"/>
<path d="M855 100 c4 -6 1 -17 -5 -25 -10 -13 -8 -15 16 -15 24 0 29 4 30 25
2 20 -3 25 -23 25 -14 0 -22 -4 -18 -10z m29 -15 c-4 -8 -8 -15 -10 -15 -2 0
-4 7 -4 15 0 8 4 15 10 15 5 0 7 -7 4 -15z"/>
<path d="M955 102 c29 -5 29 -5 6 -11 -28 -7 -41 -31 -17 -31 9 0 16 -4 16
-10 0 -5 -7 -10 -17 -10 -9 0 -14 -3 -10 -6 3 -3 21 -3 39 1 29 7 30 9 13 16
-14 5 -15 8 -5 9 8 1 4 6 -10 10 -24 8 -24 8 -2 9 12 1 22 7 22 16 0 11 -10
15 -32 14 l-33 -2 30 -5z"/>
<path d="M845 40 c19 -8 73 -14 64 -6 -2 2 -22 6 -44 9 -28 5 -34 4 -20 -3z"/>
</g>
</svg>
